# xmcd
#
# Track frame offsets:
#	150
#	25051
#	39891
#	56787
#	78559
#	94994
#	167421
#	194507
#	204472
#	219730
#	237235
#	252384
#	268847
#	281806
#	295796
#
# Disc length: 4138 seconds
#
# Revision: 0
# Processed by: cddbd v1.5.2PL0 Copyright (c) Steve Scherf et al.
# Submitted via: EZCDAudioConverter 2.1.7.1
#
DISCID=e110280f
DTITLE=Lou Reed - A Life In Music
DYEAR=1900
DGENRE=MOJO
TTITLE0=Lisa Says
TTITLE1=Andy's Chest
TTITLE2=How Do You Think It Feels
TTITLE3=White Light/White
TTITLE4=Kill Your Sons
TTITLE5=Metal Machine Music (Part 1)
TTITLE6=She's My Best Friend
TTITLE7=Follow The Leader
TTITLE8=Real Good Time Together
TTITLE9=I Want To Boogie With You
TTITLE10=Teach The Gifted Children
TTITLE11=The Gun
TTITLE12=Make Up Mind
TTITLE13=Fly Into The Sun
TTITLE14=I Remember You
EXTD=
EXTT0=
EXTT1=
EXTT2=
EXTT3=
EXTT4=
EXTT5=
EXTT6=
EXTT7=
EXTT8=
EXTT9=
EXTT10=
EXTT11=
EXTT12=
EXTT13=
EXTT14=
PLAYORDER=
